<?xml version="1.0" encoding="utf-8" standalone="no"?>
<!DOCTYPE svg PUBLIC "-//W3C//DTD SVG 1.1//EN"
  "http://www.w3.org/Graphics/SVG/1.1/DTD/svg11.dtd">
<svg height="288pt" version="1.1" viewBox="0 0 432 288" width="432pt" xmlns="http://www.w3.org/2000/svg" xmlns:xlink="http://www.w3.org/1999/xlink">
 <metadata>
  <rdf:RDF xmlns:cc="http://creativecommons.org/ns#" xmlns:dc="http://purl.org/dc/elements/1.1/" xmlns:rdf="http://www.w3.org/1999/02/22-rdf-syntax-ns#">
   <cc:Work>
    <dc:type rdf:resource="http://purl.org/dc/dcmitype/StillImage"/>
    <dc:date>2023-09-24T22:53:50.029057</dc:date>
    <dc:format>image/svg+xml</dc:format>
    <dc:creator>
     <cc:Agent>
      <dc:title>Matplotlib v3.4.3, https://matplotlib.org/</dc:title>
     </cc:Agent>
    </dc:creator>
   </cc:Work>
  </rdf:RDF>
 </metadata>
 <defs>
  <style type="text/css">*{stroke-linecap:butt;stroke-linejoin:round;}</style>
 </defs>
 <g id="figure_1">
  <g id="patch_1">
   <path d="M 0 288 
L 432 288 
L 432 0 
L 0 0 
z
" style="fill:none;"/>
  </g>
  <g id="axes_1">
   <g id="patch_2">
    <path d="M 54 252 
L 388.8 252 
L 388.8 34.56 
L 54 34.56 
z
" style="fill:#ffffff;"/>
   </g>
   <g id="matplotlib.axis_1">
    <g id="xtick_1">
     <g id="line2d_1">
      <defs>
       <path d="M 0 0 
L 0 3.5 
" id="m0f7572d506" style="stroke:#000000;stroke-width:0.8;"/>
      </defs>
      <g>
       <use style="stroke:#000000;stroke-width:0.8;" x="99.654545" xlink:href="#m0f7572d506" y="252"/>
      </g>
     </g>
     <g id="text_1">
      <!-- −2 -->
      <g transform="translate(92.283452 266.598437)scale(0.1 -0.1)">
       <defs>
        <path d="M 678 2272 
L 4684 2272 
L 4684 1741 
L 678 1741 
L 678 2272 
z
" id="DejaVuSans-2212" transform="scale(0.015625)"/>
        <path d="M 1228 531 
L 3431 531 
L 3431 0 
L 469 0 
L 469 531 
Q 828 903 1448 1529 
Q 2069 2156 2228 2338 
Q 2531 2678 2651 2914 
Q 2772 3150 2772 3378 
Q 2772 3750 2511 3984 
Q 2250 4219 1831 4219 
Q 1534 4219 1204 4116 
Q 875 4013 500 3803 
L 500 4441 
Q 881 4594 1212 4672 
Q 1544 4750 1819 4750 
Q 2544 4750 2975 4387 
Q 3406 4025 3406 3419 
Q 3406 3131 3298 2873 
Q 3191 2616 2906 2266 
Q 2828 2175 2409 1742 
Q 1991 1309 1228 531 
z
" id="DejaVuSans-32" transform="scale(0.015625)"/>
       </defs>
       <use xlink:href="#DejaVuSans-2212"/>
       <use x="83.789062" xlink:href="#DejaVuSans-32"/>
      </g>
     </g>
    </g>
    <g id="xtick_2">
     <g id="line2d_2">
      <g>
       <use style="stroke:#000000;stroke-width:0.8;" x="160.527273" xlink:href="#m0f7572d506" y="252"/>
      </g>
     </g>
     <g id="text_2">
      <!-- −1 -->
      <g transform="translate(153.156179 266.598437)scale(0.1 -0.1)">
       <defs>
        <path d="M 794 531 
L 1825 531 
L 1825 4091 
L 703 3866 
L 703 4441 
L 1819 4666 
L 2450 4666 
L 2450 531 
L 3481 531 
L 3481 0 
L 794 0 
L 794 531 
z
" id="DejaVuSans-31" transform="scale(0.015625)"/>
       </defs>
       <use xlink:href="#DejaVuSans-2212"/>
       <use x="83.789062" xlink:href="#DejaVuSans-31"/>
      </g>
     </g>
    </g>
    <g id="xtick_3">
     <g id="line2d_3">
      <g>
       <use style="stroke:#000000;stroke-width:0.8;" x="221.4" xlink:href="#m0f7572d506" y="252"/>
      </g>
     </g>
     <g id="text_3">
      <!-- 0 -->
      <g transform="translate(218.21875 266.598437)scale(0.1 -0.1)">
       <defs>
        <path d="M 2034 4250 
Q 1547 4250 1301 3770 
Q 1056 3291 1056 2328 
Q 1056 1369 1301 889 
Q 1547 409 2034 409 
Q 2525 409 2770 889 
Q 3016 1369 3016 2328 
Q 3016 3291 2770 3770 
Q 2525 4250 2034 4250 
z
M 2034 4750 
Q 2819 4750 3233 4129 
Q 3647 3509 3647 2328 
Q 3647 1150 3233 529 
Q 2819 -91 2034 -91 
Q 1250 -91 836 529 
Q 422 1150 422 2328 
Q 422 3509 836 4129 
Q 1250 4750 2034 4750 
z
" id="DejaVuSans-30" transform="scale(0.015625)"/>
       </defs>
       <use xlink:href="#DejaVuSans-30"/>
      </g>
     </g>
    </g>
    <g id="xtick_4">
     <g id="line2d_4">
      <g>
       <use style="stroke:#000000;stroke-width:0.8;" x="282.272727" xlink:href="#m0f7572d506" y="252"/>
      </g>
     </g>
     <g id="text_4">
      <!-- 1 -->
      <g transform="translate(279.091477 266.598437)scale(0.1 -0.1)">
       <use xlink:href="#DejaVuSans-31"/>
      </g>
     </g>
    </g>
    <g id="xtick_5">
     <g id="line2d_5">
      <g>
       <use style="stroke:#000000;stroke-width:0.8;" x="343.145455" xlink:href="#m0f7572d506" y="252"/>
      </g>
     </g>
     <g id="text_5">
      <!-- 2 -->
      <g transform="translate(339.964205 266.598437)scale(0.1 -0.1)">
       <use xlink:href="#DejaVuSans-32"/>
      </g>
     </g>
    </g>
    <g id="text_6">
     <!-- x -->
     <g transform="translate(218.440625 280.276563)scale(0.1 -0.1)">
      <defs>
       <path d="M 3513 3500 
L 2247 1797 
L 3578 0 
L 2900 0 
L 1881 1375 
L 863 0 
L 184 0 
L 1544 1831 
L 300 3500 
L 978 3500 
L 1906 2253 
L 2834 3500 
L 3513 3500 
z
" id="DejaVuSans-78" transform="scale(0.015625)"/>
      </defs>
      <use xlink:href="#DejaVuSans-78"/>
     </g>
    </g>
   </g>
   <g id="matplotlib.axis_2">
    <g id="ytick_1">
     <g id="line2d_6">
      <defs>
       <path d="M 0 0 
L -3.5 0 
" id="m98c2d2193e" style="stroke:#000000;stroke-width:0.8;"/>
      </defs>
      <g>
       <use style="stroke:#000000;stroke-width:0.8;" x="54" xlink:href="#m98c2d2193e" y="242.116364"/>
      </g>
     </g>
     <g id="text_7">
      <!-- −2 -->
      <g transform="translate(32.257812 245.915582)scale(0.1 -0.1)">
       <use xlink:href="#DejaVuSans-2212"/>
       <use x="83.789062" xlink:href="#DejaVuSans-32"/>
      </g>
     </g>
    </g>
    <g id="ytick_2">
     <g id="line2d_7">
      <g>
       <use style="stroke:#000000;stroke-width:0.8;" x="54" xlink:href="#m98c2d2193e" y="210.488727"/>
      </g>
     </g>
     <g id="text_8">
      <!-- −1 -->
      <g transform="translate(32.257812 214.287946)scale(0.1 -0.1)">
       <use xlink:href="#DejaVuSans-2212"/>
       <use x="83.789062" xlink:href="#DejaVuSans-31"/>
      </g>
     </g>
    </g>
    <g id="ytick_3">
     <g id="line2d_8">
      <g>
       <use style="stroke:#000000;stroke-width:0.8;" x="54" xlink:href="#m98c2d2193e" y="178.861091"/>
      </g>
     </g>
     <g id="text_9">
      <!-- 0 -->
      <g transform="translate(40.6375 182.66031)scale(0.1 -0.1)">
       <use xlink:href="#DejaVuSans-30"/>
      </g>
     </g>
    </g>
    <g id="ytick_4">
     <g id="line2d_9">
      <g>
       <use style="stroke:#000000;stroke-width:0.8;" x="54" xlink:href="#m98c2d2193e" y="147.233455"/>
      </g>
     </g>
     <g id="text_10">
      <!-- 1 -->
      <g transform="translate(40.6375 151.032673)scale(0.1 -0.1)">
       <use xlink:href="#DejaVuSans-31"/>
      </g>
     </g>
    </g>
    <g id="ytick_5">
     <g id="line2d_10">
      <g>
       <use style="stroke:#000000;stroke-width:0.8;" x="54" xlink:href="#m98c2d2193e" y="115.605818"/>
      </g>
     </g>
     <g id="text_11">
      <!-- 2 -->
      <g transform="translate(40.6375 119.405037)scale(0.1 -0.1)">
       <use xlink:href="#DejaVuSans-32"/>
      </g>
     </g>
    </g>
    <g id="ytick_6">
     <g id="line2d_11">
      <g>
       <use style="stroke:#000000;stroke-width:0.8;" x="54" xlink:href="#m98c2d2193e" y="83.978182"/>
      </g>
     </g>
     <g id="text_12">
      <!-- 3 -->
      <g transform="translate(40.6375 87.777401)scale(0.1 -0.1)">
       <defs>
        <path d="M 2597 2516 
Q 3050 2419 3304 2112 
Q 3559 1806 3559 1356 
Q 3559 666 3084 287 
Q 2609 -91 1734 -91 
Q 1441 -91 1130 -33 
Q 819 25 488 141 
L 488 750 
Q 750 597 1062 519 
Q 1375 441 1716 441 
Q 2309 441 2620 675 
Q 2931 909 2931 1356 
Q 2931 1769 2642 2001 
Q 2353 2234 1838 2234 
L 1294 2234 
L 1294 2753 
L 1863 2753 
Q 2328 2753 2575 2939 
Q 2822 3125 2822 3475 
Q 2822 3834 2567 4026 
Q 2313 4219 1838 4219 
Q 1578 4219 1281 4162 
Q 984 4106 628 3988 
L 628 4550 
Q 988 4650 1302 4700 
Q 1616 4750 1894 4750 
Q 2613 4750 3031 4423 
Q 3450 4097 3450 3541 
Q 3450 3153 3228 2886 
Q 3006 2619 2597 2516 
z
" id="DejaVuSans-33" transform="scale(0.015625)"/>
       </defs>
       <use xlink:href="#DejaVuSans-33"/>
      </g>
     </g>
    </g>
    <g id="ytick_7">
     <g id="line2d_12">
      <g>
       <use style="stroke:#000000;stroke-width:0.8;" x="54" xlink:href="#m98c2d2193e" y="52.350545"/>
      </g>
     </g>
     <g id="text_13">
      <!-- 4 -->
      <g transform="translate(40.6375 56.149764)scale(0.1 -0.1)">
       <defs>
        <path d="M 2419 4116 
L 825 1625 
L 2419 1625 
L 2419 4116 
z
M 2253 4666 
L 3047 4666 
L 3047 1625 
L 3713 1625 
L 3713 1100 
L 3047 1100 
L 3047 0 
L 2419 0 
L 2419 1100 
L 313 1100 
L 313 1709 
L 2253 4666 
z
" id="DejaVuSans-34" transform="scale(0.015625)"/>
       </defs>
       <use xlink:href="#DejaVuSans-34"/>
      </g>
     </g>
    </g>
    <g id="text_14">
     <!-- y -->
     <g transform="translate(26.178125 146.239375)rotate(-90)scale(0.1 -0.1)">
      <defs>
       <path d="M 2059 -325 
Q 1816 -950 1584 -1140 
Q 1353 -1331 966 -1331 
L 506 -1331 
L 506 -850 
L 844 -850 
Q 1081 -850 1212 -737 
Q 1344 -625 1503 -206 
L 1606 56 
L 191 3500 
L 800 3500 
L 1894 763 
L 2988 3500 
L 3597 3500 
L 2059 -325 
z
" id="DejaVuSans-79" transform="scale(0.015625)"/>
      </defs>
      <use xlink:href="#DejaVuSans-79"/>
     </g>
    </g>
   </g>
   <g id="line2d_13">
    <path clip-path="url(#p953310ac5d)" d="M 69.218182 44.443636 
L 103.036364 122.536566 
L 136.854545 181.106263 
L 170.672727 220.152727 
L 204.490909 239.67596 
L 238.309091 239.67596 
L 272.127273 220.152727 
L 305.945455 181.106263 
L 339.763636 122.536566 
L 373.581818 44.443636 
" style="fill:none;stroke:#ff0000;stroke-linecap:square;stroke-width:1.5;"/>
    <defs>
     <path d="M 0 1.5 
C 0.397805 1.5 0.77937 1.341951 1.06066 1.06066 
C 1.341951 0.77937 1.5 0.397805 1.5 0 
C 1.5 -0.397805 1.341951 -0.77937 1.06066 -1.06066 
C 0.77937 -1.341951 0.397805 -1.5 0 -1.5 
C -0.397805 -1.5 -0.77937 -1.341951 -1.06066 -1.06066 
C -1.341951 -0.77937 -1.5 -0.397805 -1.5 0 
C -1.5 0.397805 -1.341951 0.77937 -1.06066 1.06066 
C -0.77937 1.341951 -0.397805 1.5 0 1.5 
z
" id="m2ce3d695a1" style="stroke:#ff0000;"/>
    </defs>
    <g clip-path="url(#p953310ac5d)">
     <use style="fill:#ff0000;stroke:#ff0000;" x="69.218182" xlink:href="#m2ce3d695a1" y="44.443636"/>
     <use style="fill:#ff0000;stroke:#ff0000;" x="103.036364" xlink:href="#m2ce3d695a1" y="122.536566"/>
     <use style="fill:#ff0000;stroke:#ff0000;" x="136.854545" xlink:href="#m2ce3d695a1" y="181.106263"/>
     <use style="fill:#ff0000;stroke:#ff0000;" x="170.672727" xlink:href="#m2ce3d695a1" y="220.152727"/>
     <use style="fill:#ff0000;stroke:#ff0000;" x="204.490909" xlink:href="#m2ce3d695a1" y="239.67596"/>
     <use style="fill:#ff0000;stroke:#ff0000;" x="238.309091" xlink:href="#m2ce3d695a1" y="239.67596"/>
     <use style="fill:#ff0000;stroke:#ff0000;" x="272.127273" xlink:href="#m2ce3d695a1" y="220.152727"/>
     <use style="fill:#ff0000;stroke:#ff0000;" x="305.945455" xlink:href="#m2ce3d695a1" y="181.106263"/>
     <use style="fill:#ff0000;stroke:#ff0000;" x="339.763636" xlink:href="#m2ce3d695a1" y="122.536566"/>
     <use style="fill:#ff0000;stroke:#ff0000;" x="373.581818" xlink:href="#m2ce3d695a1" y="44.443636"/>
    </g>
   </g>
   <g id="line2d_14">
    <path clip-path="url(#p953310ac5d)" d="M 69.218182 197.78935 
L 103.036364 208.306481 
L 136.854545 209.966884 
L 170.672727 202.271135 
L 204.490909 187.533999 
L 238.309091 170.188183 
L 272.127273 155.451047 
L 305.945455 147.755297 
L 339.763636 149.4157 
L 373.581818 159.932832 
" style="fill:none;stroke:#333333;stroke-dasharray:9.6,2.4,1.5,2.4;stroke-dashoffset:0;stroke-width:1.5;"/>
    <defs>
     <path d="M 0 3 
C 0.795609 3 1.55874 2.683901 2.12132 2.12132 
C 2.683901 1.55874 3 0.795609 3 0 
C 3 -0.795609 2.683901 -1.55874 2.12132 -2.12132 
C 1.55874 -2.683901 0.795609 -3 0 -3 
C -0.795609 -3 -1.55874 -2.683901 -2.12132 -2.12132 
C -2.683901 -1.55874 -3 -0.795609 -3 0 
C -3 0.795609 -2.683901 1.55874 -2.12132 2.12132 
C -1.55874 2.683901 -0.795609 3 0 3 
z
" id="m9ce787420a" style="stroke:#333333;"/>
    </defs>
    <g clip-path="url(#p953310ac5d)">
     <use style="fill:#333333;stroke:#333333;" x="69.218182" xlink:href="#m9ce787420a" y="197.78935"/>
     <use style="fill:#333333;stroke:#333333;" x="103.036364" xlink:href="#m9ce787420a" y="208.306481"/>
     <use style="fill:#333333;stroke:#333333;" x="136.854545" xlink:href="#m9ce787420a" y="209.966884"/>
     <use style="fill:#333333;stroke:#333333;" x="170.672727" xlink:href="#m9ce787420a" y="202.271135"/>
     <use style="fill:#333333;stroke:#333333;" x="204.490909" xlink:href="#m9ce787420a" y="187.533999"/>
     <use style="fill:#333333;stroke:#333333;" x="238.309091" xlink:href="#m9ce787420a" y="170.188183"/>
     <use style="fill:#333333;stroke:#333333;" x="272.127273" xlink:href="#m9ce787420a" y="155.451047"/>
     <use style="fill:#333333;stroke:#333333;" x="305.945455" xlink:href="#m9ce787420a" y="147.755297"/>
     <use style="fill:#333333;stroke:#333333;" x="339.763636" xlink:href="#m9ce787420a" y="149.4157"/>
     <use style="fill:#333333;stroke:#333333;" x="373.581818" xlink:href="#m9ce787420a" y="159.932832"/>
    </g>
   </g>
   <g id="line2d_15">
    <path clip-path="url(#p953310ac5d)" d="M 69.218182 131.540443 
L 103.036364 121.606165 
L 136.854545 135.6586 
L 170.672727 159.352721 
L 204.490909 176.45195 
L 238.309091 176.45195 
L 272.127273 159.352721 
L 305.945455 135.6586 
L 339.763636 121.606165 
L 373.581818 131.540443 
" style="fill:none;stroke:#00ff00;stroke-dasharray:5.55,2.4;stroke-dashoffset:0;stroke-width:1.5;"/>
    <defs>
     <path d="M -3 3 
L 3 3 
L 3 -3 
L -3 -3 
z
" id="m55f8df29e5" style="stroke:#00ff00;stroke-linejoin:miter;"/>
    </defs>
    <g clip-path="url(#p953310ac5d)">
     <use style="fill:#00ff00;stroke:#00ff00;stroke-linejoin:miter;" x="69.218182" xlink:href="#m55f8df29e5" y="131.540443"/>
     <use style="fill:#00ff00;stroke:#00ff00;stroke-linejoin:miter;" x="103.036364" xlink:href="#m55f8df29e5" y="121.606165"/>
     <use style="fill:#00ff00;stroke:#00ff00;stroke-linejoin:miter;" x="136.854545" xlink:href="#m55f8df29e5" y="135.6586"/>
     <use style="fill:#00ff00;stroke:#00ff00;stroke-linejoin:miter;" x="170.672727" xlink:href="#m55f8df29e5" y="159.352721"/>
     <use style="fill:#00ff00;stroke:#00ff00;stroke-linejoin:miter;" x="204.490909" xlink:href="#m55f8df29e5" y="176.45195"/>
     <use style="fill:#00ff00;stroke:#00ff00;stroke-linejoin:miter;" x="238.309091" xlink:href="#m55f8df29e5" y="176.45195"/>
     <use style="fill:#00ff00;stroke:#00ff00;stroke-linejoin:miter;" x="272.127273" xlink:href="#m55f8df29e5" y="159.352721"/>
     <use style="fill:#00ff00;stroke:#00ff00;stroke-linejoin:miter;" x="305.945455" xlink:href="#m55f8df29e5" y="135.6586"/>
     <use style="fill:#00ff00;stroke:#00ff00;stroke-linejoin:miter;" x="339.763636" xlink:href="#m55f8df29e5" y="121.606165"/>
     <use style="fill:#00ff00;stroke:#00ff00;stroke-linejoin:miter;" x="373.581818" xlink:href="#m55f8df29e5" y="131.540443"/>
    </g>
   </g>
   <g id="line2d_16">
    <path clip-path="url(#p953310ac5d)" d="M 69.218182 242.116364 
L 103.036364 224.545455 
L 136.854545 206.974545 
L 170.672727 189.403636 
L 204.490909 171.832727 
L 238.309091 154.261818 
L 272.127273 136.690909 
L 305.945455 119.12 
L 339.763636 101.549091 
L 373.581818 83.978182 
" style="fill:none;stroke:#ff00ff;stroke-dasharray:1.5,2.475;stroke-dashoffset:0;stroke-width:1.5;"/>
    <defs>
     <path d="M -3 3 
L 3 -3 
M -3 -3 
L 3 3 
" id="m736d7a3bc8" style="stroke:#ff00ff;"/>
    </defs>
    <g clip-path="url(#p953310ac5d)">
     <use style="fill:#ff00ff;stroke:#ff00ff;" x="69.218182" xlink:href="#m736d7a3bc8" y="242.116364"/>
     <use style="fill:#ff00ff;stroke:#ff00ff;" x="103.036364" xlink:href="#m736d7a3bc8" y="224.545455"/>
     <use style="fill:#ff00ff;stroke:#ff00ff;" x="136.854545" xlink:href="#m736d7a3bc8" y="206.974545"/>
     <use style="fill:#ff00ff;stroke:#ff00ff;" x="170.672727" xlink:href="#m736d7a3bc8" y="189.403636"/>
     <use style="fill:#ff00ff;stroke:#ff00ff;" x="204.490909" xlink:href="#m736d7a3bc8" y="171.832727"/>
     <use style="fill:#ff00ff;stroke:#ff00ff;" x="238.309091" xlink:href="#m736d7a3bc8" y="154.261818"/>
     <use style="fill:#ff00ff;stroke:#ff00ff;" x="272.127273" xlink:href="#m736d7a3bc8" y="136.690909"/>
     <use style="fill:#ff00ff;stroke:#ff00ff;" x="305.945455" xlink:href="#m736d7a3bc8" y="119.12"/>
     <use style="fill:#ff00ff;stroke:#ff00ff;" x="339.763636" xlink:href="#m736d7a3bc8" y="101.549091"/>
     <use style="fill:#ff00ff;stroke:#ff00ff;" x="373.581818" xlink:href="#m736d7a3bc8" y="83.978182"/>
    </g>
   </g>
   <g id="line2d_17">
    <path clip-path="url(#p953310ac5d)" d="M 69.218182 209.623342 
L 103.036364 208.98044 
L 136.854545 207.85992 
L 170.672727 205.906956 
L 204.490909 202.503117 
L 238.309091 196.570535 
L 272.127273 186.230584 
L 305.945455 168.208992 
L 339.763636 136.798996 
L 373.581818 82.054231 
" style="fill:none;stroke:#0000ff;stroke-dasharray:5.55,2.4;stroke-dashoffset:0;stroke-width:1.5;"/>
    <defs>
     <path d="M 3 0 
L -3 -3 
L -3 3 
z
" id="mc60f573520" style="stroke:#0000ff;stroke-linejoin:miter;"/>
    </defs>
    <g clip-path="url(#p953310ac5d)">
     <use style="fill:#0000ff;stroke:#0000ff;stroke-linejoin:miter;" x="69.218182" xlink:href="#mc60f573520" y="209.623342"/>
     <use style="fill:#0000ff;stroke:#0000ff;stroke-linejoin:miter;" x="103.036364" xlink:href="#mc60f573520" y="208.98044"/>
     <use style="fill:#0000ff;stroke:#0000ff;stroke-linejoin:miter;" x="136.854545" xlink:href="#mc60f573520" y="207.85992"/>
     <use style="fill:#0000ff;stroke:#0000ff;stroke-linejoin:miter;" x="170.672727" xlink:href="#mc60f573520" y="205.906956"/>
     <use style="fill:#0000ff;stroke:#0000ff;stroke-linejoin:miter;" x="204.490909" xlink:href="#mc60f573520" y="202.503117"/>
     <use style="fill:#0000ff;stroke:#0000ff;stroke-linejoin:miter;" x="238.309091" xlink:href="#mc60f573520" y="196.570535"/>
     <use style="fill:#0000ff;stroke:#0000ff;stroke-linejoin:miter;" x="272.127273" xlink:href="#mc60f573520" y="186.230584"/>
     <use style="fill:#0000ff;stroke:#0000ff;stroke-linejoin:miter;" x="305.945455" xlink:href="#mc60f573520" y="168.208992"/>
     <use style="fill:#0000ff;stroke:#0000ff;stroke-linejoin:miter;" x="339.763636" xlink:href="#mc60f573520" y="136.798996"/>
     <use style="fill:#0000ff;stroke:#0000ff;stroke-linejoin:miter;" x="373.581818" xlink:href="#mc60f573520" y="82.054231"/>
    </g>
   </g>
   <g id="patch_3">
    <path d="M 54 252 
L 54 34.56 
" style="fill:none;stroke:#000000;stroke-linecap:square;stroke-linejoin:miter;stroke-width:0.8;"/>
   </g>
   <g id="patch_4">
    <path d="M 388.8 252 
L 388.8 34.56 
" style="fill:none;stroke:#000000;stroke-linecap:square;stroke-linejoin:miter;stroke-width:0.8;"/>
   </g>
   <g id="patch_5">
    <path d="M 54 252 
L 388.8 252 
" style="fill:none;stroke:#000000;stroke-linecap:square;stroke-linejoin:miter;stroke-width:0.8;"/>
   </g>
   <g id="patch_6">
    <path d="M 54 34.56 
L 388.8 34.56 
" style="fill:none;stroke:#000000;stroke-linecap:square;stroke-linejoin:miter;stroke-width:0.8;"/>
   </g>
   <g id="legend_1">
    <g id="patch_7">
     <path d="M 423.12 181.48625 
L 515.72 181.48625 
Q 517.72 181.48625 517.72 179.48625 
L 517.72 107.07375 
Q 517.72 105.07375 515.72 105.07375 
L 423.12 105.07375 
Q 421.12 105.07375 421.12 107.07375 
L 421.12 179.48625 
Q 421.12 181.48625 423.12 181.48625 
z
" style="fill:#ffffff;opacity:0.8;stroke:#cccccc;stroke-linejoin:miter;"/>
    </g>
    <g id="line2d_18">
     <path d="M 425.12 113.172188 
L 433 113.172188 
" style="fill:none;stroke:#ff0000;stroke-linecap:square;stroke-width:1.5;"/>
    </g>
    <g id="line2d_19">
     <g>
      <use style="fill:#ff0000;stroke:#ff0000;" x="435.12" xlink:href="#m2ce3d695a1" y="113.172188"/>
     </g>
    </g>
    <g id="text_15">
     <!-- $x^2-2$ -->
     <g transform="translate(453.12 116.672188)scale(0.1 -0.1)">
      <defs>
       <path d="M 3841 3500 
L 2234 1784 
L 3219 0 
L 2559 0 
L 1819 1388 
L 531 0 
L -166 0 
L 1556 1844 
L 641 3500 
L 1300 3500 
L 1972 2234 
L 3144 3500 
L 3841 3500 
z
" id="DejaVuSans-Oblique-78" transform="scale(0.015625)"/>
      </defs>
      <use transform="translate(0 0.765625)" xlink:href="#DejaVuSans-Oblique-78"/>
      <use transform="translate(63.645833 39.046875)scale(0.7)" xlink:href="#DejaVuSans-32"/>
      <use transform="translate(130.398763 0.765625)" xlink:href="#DejaVuSans-2212"/>
      <use transform="translate(233.670247 0.765625)" xlink:href="#DejaVuSans-32"/>
     </g>
    </g>
    <g id="line2d_20">
     <path d="M 425.12 127.850313 
L 433 127.850313 
" style="fill:none;stroke:#333333;stroke-dasharray:9.6,2.4,1.5,2.4;stroke-dashoffset:0;stroke-width:1.5;"/>
    </g>
    <g id="line2d_21">
     <g>
      <use style="fill:#333333;stroke:#333333;" x="435.12" xlink:href="#m9ce787420a" y="127.850313"/>
     </g>
    </g>
    <g id="text_16">
     <!-- $sin(x)$ -->
     <g transform="translate(453.12 131.350313)scale(0.1 -0.1)">
      <defs>
       <path d="M 3200 3397 
L 3091 2853 
Q 2863 2978 2609 3040 
Q 2356 3103 2088 3103 
Q 1634 3103 1373 2948 
Q 1113 2794 1113 2528 
Q 1113 2219 1719 2053 
Q 1766 2041 1788 2034 
L 1972 1978 
Q 2547 1819 2739 1644 
Q 2931 1469 2931 1166 
Q 2931 609 2489 259 
Q 2047 -91 1331 -91 
Q 1053 -91 747 -37 
Q 441 16 72 128 
L 184 722 
Q 500 559 806 475 
Q 1113 391 1394 391 
Q 1816 391 2080 572 
Q 2344 753 2344 1031 
Q 2344 1331 1650 1516 
L 1591 1531 
L 1394 1581 
Q 956 1697 753 1886 
Q 550 2075 550 2369 
Q 550 2928 970 3256 
Q 1391 3584 2113 3584 
Q 2397 3584 2667 3537 
Q 2938 3491 3200 3397 
z
" id="DejaVuSans-Oblique-73" transform="scale(0.015625)"/>
       <path d="M 1172 4863 
L 1747 4863 
L 1606 4134 
L 1031 4134 
L 1172 4863 
z
M 909 3500 
L 1484 3500 
L 800 0 
L 225 0 
L 909 3500 
z
" id="DejaVuSans-Oblique-69" transform="scale(0.015625)"/>
       <path d="M 3566 2113 
L 3156 0 
L 2578 0 
L 2988 2091 
Q 3016 2238 3031 2350 
Q 3047 2463 3047 2528 
Q 3047 2791 2881 2937 
Q 2716 3084 2419 3084 
Q 1956 3084 1622 2776 
Q 1288 2469 1184 1941 
L 800 0 
L 225 0 
L 903 3500 
L 1478 3500 
L 1363 2950 
Q 1603 3253 1940 3418 
Q 2278 3584 2650 3584 
Q 3113 3584 3367 3334 
Q 3622 3084 3622 2631 
Q 3622 2519 3608 2391 
Q 3594 2263 3566 2113 
z
" id="DejaVuSans-Oblique-6e" transform="scale(0.015625)"/>
       <path d="M 1984 4856 
Q 1566 4138 1362 3434 
Q 1159 2731 1159 2009 
Q 1159 1288 1364 580 
Q 1569 -128 1984 -844 
L 1484 -844 
Q 1016 -109 783 600 
Q 550 1309 550 2009 
Q 550 2706 781 3412 
Q 1013 4119 1484 4856 
L 1984 4856 
z
" id="DejaVuSans-28" transform="scale(0.015625)"/>
       <path d="M 513 4856 
L 1013 4856 
Q 1481 4119 1714 3412 
Q 1947 2706 1947 2009 
Q 1947 1309 1714 600 
Q 1481 -109 1013 -844 
L 513 -844 
Q 928 -128 1133 580 
Q 1338 1288 1338 2009 
Q 1338 2731 1133 3434 
Q 928 4138 513 4856 
z
" id="DejaVuSans-29" transform="scale(0.015625)"/>
      </defs>
      <use transform="translate(0 0.015625)" xlink:href="#DejaVuSans-Oblique-73"/>
      <use transform="translate(52.099609 0.015625)" xlink:href="#DejaVuSans-Oblique-69"/>
      <use transform="translate(79.882812 0.015625)" xlink:href="#DejaVuSans-Oblique-6e"/>
      <use transform="translate(143.261719 0.015625)" xlink:href="#DejaVuSans-28"/>
      <use transform="translate(182.275391 0.015625)" xlink:href="#DejaVuSans-Oblique-78"/>
      <use transform="translate(241.455078 0.015625)" xlink:href="#DejaVuSans-29"/>
     </g>
    </g>
    <g id="line2d_22">
     <path d="M 425.12 142.528437 
L 433 142.528437 
" style="fill:none;stroke:#00ff00;stroke-dasharray:5.55,2.4;stroke-dashoffset:0;stroke-width:1.5;"/>
    </g>
    <g id="line2d_23">
     <g>
      <use style="fill:#00ff00;stroke:#00ff00;stroke-linejoin:miter;" x="435.12" xlink:href="#m55f8df29e5" y="142.528437"/>
     </g>
    </g>
    <g id="text_17">
     <!-- $x * sin(x)$ -->
     <g transform="translate(453.12 146.028437)scale(0.1 -0.1)">
      <defs>
       <path d="M 3009 3897 
L 1888 3291 
L 3009 2681 
L 2828 2375 
L 1778 3009 
L 1778 1831 
L 1422 1831 
L 1422 3009 
L 372 2375 
L 191 2681 
L 1313 3291 
L 191 3897 
L 372 4206 
L 1422 3572 
L 1422 4750 
L 1778 4750 
L 1778 3572 
L 2828 4206 
L 3009 3897 
z
" id="DejaVuSans-2a" transform="scale(0.015625)"/>
      </defs>
      <use transform="translate(0 0.015625)" xlink:href="#DejaVuSans-Oblique-78"/>
      <use transform="translate(78.662109 0.015625)" xlink:href="#DejaVuSans-2a"/>
      <use transform="translate(148.144531 0.015625)" xlink:href="#DejaVuSans-Oblique-73"/>
      <use transform="translate(200.244141 0.015625)" xlink:href="#DejaVuSans-Oblique-69"/>
      <use transform="translate(228.027344 0.015625)" xlink:href="#DejaVuSans-Oblique-6e"/>
      <use transform="translate(291.40625 0.015625)" xlink:href="#DejaVuSans-28"/>
      <use transform="translate(330.419922 0.015625)" xlink:href="#DejaVuSans-Oblique-78"/>
      <use transform="translate(389.599609 0.015625)" xlink:href="#DejaVuSans-29"/>
     </g>
    </g>
    <g id="line2d_24">
     <path d="M 425.12 157.206563 
L 433 157.206563 
" style="fill:none;stroke:#ff00ff;stroke-dasharray:1.5,2.475;stroke-dashoffset:0;stroke-width:1.5;"/>
    </g>
    <g id="line2d_25">
     <g>
      <use style="fill:#ff00ff;stroke:#ff00ff;" x="435.12" xlink:href="#m736d7a3bc8" y="157.206563"/>
     </g>
    </g>
    <g id="text_18">
     <!-- $x+0.5$ -->
     <g transform="translate(453.12 160.706563)scale(0.1 -0.1)">
      <defs>
       <path d="M 2944 4013 
L 2944 2272 
L 4684 2272 
L 4684 1741 
L 2944 1741 
L 2944 0 
L 2419 0 
L 2419 1741 
L 678 1741 
L 678 2272 
L 2419 2272 
L 2419 4013 
L 2944 4013 
z
" id="DejaVuSans-2b" transform="scale(0.015625)"/>
       <path d="M 684 794 
L 1344 794 
L 1344 0 
L 684 0 
L 684 794 
z
" id="DejaVuSans-2e" transform="scale(0.015625)"/>
       <path d="M 691 4666 
L 3169 4666 
L 3169 4134 
L 1269 4134 
L 1269 2991 
Q 1406 3038 1543 3061 
Q 1681 3084 1819 3084 
Q 2600 3084 3056 2656 
Q 3513 2228 3513 1497 
Q 3513 744 3044 326 
Q 2575 -91 1722 -91 
Q 1428 -91 1123 -41 
Q 819 9 494 109 
L 494 744 
Q 775 591 1075 516 
Q 1375 441 1709 441 
Q 2250 441 2565 725 
Q 2881 1009 2881 1497 
Q 2881 1984 2565 2268 
Q 2250 2553 1709 2553 
Q 1456 2553 1204 2497 
Q 953 2441 691 2322 
L 691 4666 
z
" id="DejaVuSans-35" transform="scale(0.015625)"/>
      </defs>
      <use transform="translate(0 0.78125)" xlink:href="#DejaVuSans-Oblique-78"/>
      <use transform="translate(78.662109 0.78125)" xlink:href="#DejaVuSans-2b"/>
      <use transform="translate(181.933594 0.78125)" xlink:href="#DejaVuSans-30"/>
      <use transform="translate(245.556641 0.78125)" xlink:href="#DejaVuSans-2e"/>
      <use transform="translate(277.34375 0.78125)" xlink:href="#DejaVuSans-35"/>
     </g>
    </g>
    <g id="line2d_26">
     <path d="M 425.12 171.88625 
L 433 171.88625 
" style="fill:none;stroke:#0000ff;stroke-dasharray:5.55,2.4;stroke-dashoffset:0;stroke-width:1.5;"/>
    </g>
    <g id="line2d_27">
     <g>
      <use style="fill:#0000ff;stroke:#0000ff;stroke-linejoin:miter;" x="435.12" xlink:href="#mc60f573520" y="171.88625"/>
     </g>
    </g>
    <g id="text_19">
     <!-- $exp(x)/3 - 1$ -->
     <g transform="translate(453.12 175.38625)scale(0.1 -0.1)">
      <defs>
       <path d="M 3078 2063 
Q 3088 2113 3092 2166 
Q 3097 2219 3097 2272 
Q 3097 2653 2873 2875 
Q 2650 3097 2266 3097 
Q 1838 3097 1509 2826 
Q 1181 2556 1013 2059 
L 3078 2063 
z
M 3578 1613 
L 903 1613 
Q 884 1494 878 1425 
Q 872 1356 872 1306 
Q 872 872 1139 634 
Q 1406 397 1894 397 
Q 2269 397 2603 481 
Q 2938 566 3225 728 
L 3116 159 
Q 2806 34 2476 -28 
Q 2147 -91 1806 -91 
Q 1078 -91 686 257 
Q 294 606 294 1247 
Q 294 1794 489 2264 
Q 684 2734 1063 3103 
Q 1306 3334 1642 3459 
Q 1978 3584 2356 3584 
Q 2950 3584 3301 3228 
Q 3653 2872 3653 2272 
Q 3653 2128 3634 1964 
Q 3616 1800 3578 1613 
z
" id="DejaVuSans-Oblique-65" transform="scale(0.015625)"/>
       <path d="M 3175 2156 
Q 3175 2616 2975 2859 
Q 2775 3103 2400 3103 
Q 2144 3103 1911 2972 
Q 1678 2841 1497 2591 
Q 1319 2344 1212 1994 
Q 1106 1644 1106 1300 
Q 1106 863 1306 627 
Q 1506 391 1875 391 
Q 2147 391 2380 519 
Q 2613 647 2778 891 
Q 2956 1147 3065 1494 
Q 3175 1841 3175 2156 
z
M 1394 2969 
Q 1625 3272 1939 3428 
Q 2253 3584 2638 3584 
Q 3175 3584 3472 3232 
Q 3769 2881 3769 2247 
Q 3769 1728 3584 1258 
Q 3400 788 3053 416 
Q 2822 169 2531 39 
Q 2241 -91 1919 -91 
Q 1547 -91 1294 64 
Q 1041 219 916 525 
L 556 -1331 
L -19 -1331 
L 922 3500 
L 1497 3500 
L 1394 2969 
z
" id="DejaVuSans-Oblique-70" transform="scale(0.015625)"/>
       <path d="M 1625 4666 
L 2156 4666 
L 531 -594 
L 0 -594 
L 1625 4666 
z
" id="DejaVuSans-2f" transform="scale(0.015625)"/>
      </defs>
      <use transform="translate(0 0.125)" xlink:href="#DejaVuSans-Oblique-65"/>
      <use transform="translate(61.523438 0.125)" xlink:href="#DejaVuSans-Oblique-78"/>
      <use transform="translate(120.703125 0.125)" xlink:href="#DejaVuSans-Oblique-70"/>
      <use transform="translate(184.179688 0.125)" xlink:href="#DejaVuSans-28"/>
      <use transform="translate(223.193359 0.125)" xlink:href="#DejaVuSans-Oblique-78"/>
      <use transform="translate(282.373047 0.125)" xlink:href="#DejaVuSans-29"/>
      <use transform="translate(321.386719 0.125)" xlink:href="#DejaVuSans-2f"/>
      <use transform="translate(355.078125 0.125)" xlink:href="#DejaVuSans-33"/>
      <use transform="translate(438.183594 0.125)" xlink:href="#DejaVuSans-2212"/>
      <use transform="translate(541.455078 0.125)" xlink:href="#DejaVuSans-31"/>
     </g>
    </g>
   </g>
  </g>
 </g>
 <defs>
  <clipPath id="p953310ac5d">
   <rect height="217.44" width="334.8" x="54" y="34.56"/>
  </clipPath>
 </defs>
</svg>
